<svg xmlns="http://www.w3.org/2000/svg" viewBox="0 0 1600 900"><defs><linearGradient id="bg" x1="0" y1="0" x2="1" y2="1"><stop offset="0" stop-color="#eaf9fb"/><stop offset="1" stop-color="#d5f0f7"/></linearGradient><linearGradient id="glass" x1="0" y1="0" x2="1" y2="1"><stop offset="0" stop-color="#ffffff"/><stop offset="1" stop-color="#d7eef8"/></linearGradient></defs><rect width="1600" height="900" rx="80" fill="url(#bg)"/><g transform="translate(220 180)"><rect width="1160" height="520" rx="60" fill="#ffffff" stroke="#c5e6f0" stroke-width="18"/><path d="M130 130h340v260H130z" fill="url(#glass)"/><path d="M180 180h240v160H180z" fill="#d5f0f7"/><rect x="550" y="120" width="420" height="260" rx="40" fill="#ebfbfd" stroke="#a7dce7" stroke-width="16"/><path d="M640 190h260v60H640z" fill="#b3e2ee"/><path d="M640 280h200v40H640z" fill="#9acee3"/><path d="M740 360h120v40H740z" fill="#8ac8db"/><circle cx="380" cy="420" r="64" fill="#8dd8e7"/><path d="M325 365h110v110H325z" fill="#eaf9fb"/><path d="M90 420h240v28H90z" fill="#c7e7f0"/><path d="M250 350c0-55 45-100 100-100s100 45 100 100v120H250V350z" fill="#d1f0f7" transform="translate(640 20)"/><path d="M780 280l90-90" stroke="#57b5ca" stroke-width="28" stroke-linecap="round"/><path d="M840 280l-90-90" stroke="#57b5ca" stroke-width="28" stroke-linecap="round"/><circle cx="1160" cy="520" r="60" fill="#a8e3ef" opacity=".65"/></g><circle cx="140" cy="780" r="90" fill="#a7e0eb" opacity=".55"/><circle cx="1460" cy="140" r="120" fill="#bce9ef" opacity=".55"/></svg>