<svg xmlns="http://www.w3.org/2000/svg" viewBox="0 0 1600 900"><defs><linearGradient id="sky" x1="0" y1="0" x2="1" y2="1"><stop offset="0" stop-color="#e9f6fb"/><stop offset="1" stop-color="#cdeff7"/></linearGradient><linearGradient id="glass" x1="0" y1="0" x2="1" y2="1"><stop offset="0" stop-color="#ffffff"/><stop offset="1" stop-color="#d8eff9"/></linearGradient><linearGradient id="squeegee" x1="0" y1="0" x2="1" y2="1"><stop offset="0" stop-color="#1f6b78"/><stop offset="1" stop-color="#45a7bb"/></linearGradient></defs><rect width="1600" height="900" rx="80" fill="url(#sky)"/><g transform="translate(160 160)"><rect width="1280" height="560" rx="56" fill="url(#glass)" stroke="#a7d9e8" stroke-width="18"/><rect x="1120" y="80" width="80" height="380" rx="30" fill="#e9fbfd"/><path d="M220 240c0-44 36-80 80-80h360c44 0 80 36 80 80v220c0 44-36 80-80 80H300c-44 0-80-36-80-80V240z" fill="#fff" opacity=".92"/><path d="M260 240h320v76H260z" fill="#b8dee7"/><path d="M260 346h320v84H260z" fill="#ccedf4"/><path d="M260 450h320v60H260z" fill="#dcedf8"/><path d="M696 220c0 40-32 72-72 72s-72-32-72-72 32-72 72-72 72 32 72 72z" fill="#6fc5d7"/><path d="M700 520l198-198" stroke="#0f6e7d" stroke-width="42" stroke-linecap="round"/><path d="M900 420l240-240" stroke="#0f6e7d" stroke-width="42" stroke-linecap="round"/><path d="M820 520l-140-140" stroke="#63aac0" stroke-width="32" stroke-linecap="round"/><path d="M354 600h650v28H354z" fill="#b3e1eb"/><circle cx="80" cy="80" r="60" fill="#a1dce6" opacity=".6"/></g><circle cx="1340" cy="780" r="100" fill="#8dd4e1" opacity=".55"/><circle cx="220" cy="760" r="70" fill="#d0f1f7" opacity=".55"/></svg>